<?xml version="1.0" encoding="UTF-8"?><svg xmlns="http://www.w3.org/2000/svg" xmlns:xlink="http://www.w3.org/1999/xlink" viewBox="0 0 2267.61 412.4"><defs><style>.u{fill:#3c3837;}.u,.v,.w,.x,.y,.z,.aa,.ab,.ac,.ad,.ae,.af,.ag,.ah,.ai,.aj,.ak,.al,.am{stroke-width:0px;}.v{fill:url(#g);}.w{fill:url(#i);}.an{isolation:isolate;}.ao{filter:url(#r);}.y{fill:url(#l);}.z{fill:url(#q);}.aa{fill:none;}.ab{fill:url(#n);}.ac{fill:url(#h);}.ad{fill:#fff;}.ae{fill:url(#j);}.af{fill:url(#t);mix-blend-mode:overlay;opacity:.75;}.ag{fill:#8f1f0b;}.ah{fill:url(#m);}.ai{fill:#d0c6c0;}.aj{fill:url(#k);}.ak{fill:url(#p);}.al{fill:url(#o);}.am{fill:#2b2928;}</style><linearGradient id="g" x1="1133.81" y1="368.62" x2="1133.81" y2="401.4" gradientUnits="userSpaceOnUse"><stop offset="0" stop-color="#7b0d3a"/><stop offset="1" stop-color="#281628"/></linearGradient><linearGradient id="h" x1="1133.81" y1="368.65" x2="1133.81" y2="224.34" gradientUnits="userSpaceOnUse"><stop offset="0" stop-color="#eac23f"/><stop offset="1" stop-color="#ff791a"/></linearGradient><linearGradient id="i" x1="1133.81" y1="368.64" x2="1133.81" y2="225.94" gradientUnits="userSpaceOnUse"><stop offset="0" stop-color="#fff27a"/><stop offset="1" stop-color="#ffc42b"/></linearGradient><linearGradient id="j" x1="1133.81" y1="366.31" x2="1133.81" y2="223.15" gradientUnits="userSpaceOnUse"><stop offset="0" stop-color="#ff791a"/><stop offset="1" stop-color="#b42d10"/></linearGradient><linearGradient id="k" x1="1133.81" y1="368.64" x2="1133.81" y2="224.34" gradientUnits="userSpaceOnUse"><stop offset="0" stop-color="#ffa42c"/><stop offset="1" stop-color="#ff481b"/></linearGradient><linearGradient id="l" x1="1009.7" y1="-325.27" x2="1010.17" y2="-189.12" gradientTransform="translate(-24.36 38.82) rotate(-.2) scale(1 -1)" gradientUnits="userSpaceOnUse"><stop offset="0" stop-color="#e2611c"/><stop offset="1" stop-color="#8c180c"/></linearGradient><linearGradient id="m" x1="1135.06" y1="359.95" x2="1135.06" y2="232.66" xlink:href="#i"/><linearGradient id="n" x1="1277.18" y1="368.72" x2="1277.18" y2="233.85" gradientUnits="userSpaceOnUse"><stop offset="0" stop-color="#ff791a"/><stop offset="1" stop-color="#da3a16"/></linearGradient><linearGradient id="o" x1="1281.81" y1="-275.42" x2="1281.81" y2="-140.94" gradientTransform="translate(2518.87 83.98) rotate(-180)" xlink:href="#l"/><linearGradient id="p" x1="1135.12" y1="360.64" x2="1135.12" y2="232.34" gradientUnits="userSpaceOnUse"><stop offset="0" stop-color="#ffa41f"/><stop offset="1" stop-color="#de5b0d"/></linearGradient><linearGradient id="q" x1="1276.85" y1="368.36" x2="1276.85" y2="401.52" gradientUnits="userSpaceOnUse"><stop offset="0" stop-color="#5e0f33"/><stop offset="1" stop-color="#32122a"/></linearGradient><filter id="r" filterUnits="userSpaceOnUse"><feOffset dx="0" dy="6"/><feGaussianBlur result="s" stdDeviation="0"/><feFlood flood-color="#000" flood-opacity=".6"/><feComposite in2="s" operator="in"/><feComposite in="SourceGraphic"/></filter><linearGradient id="t" x1="1131.88" y1="368.65" x2="1131.88" y2="224.34" gradientUnits="userSpaceOnUse"><stop offset="0" stop-color="#fff"/><stop offset="1" stop-color="#fff" stop-opacity="0"/></linearGradient></defs><g class="an"><g id="a"><polygon id="b" class="x" points="942.79 412.4 935.99 369.11 947.18 213.34 1320.44 213.34 1331.56 368.23 1331.56 368.29 1331.62 369.15 1324.83 412.4 942.79 412.4"/><g id="c"><g id="d"><path class="x" d="m1894.23,252.61l-13.43-48.87-28.86,48.87h-77.46l-13.23-56.93-27.97,56.93H662.65l-26.21-68.24L668.94,0h394.13l4.25,73.17-1.84,61.17h50.2l.26-134.34h395.22l19.09,134.34h25.65l-10-61.93L1568.38,0h623.58l75.65,185.67-59.44,66.95h-313.94Zm-691.25-118.27h66.06l-.89-16.3h-65.51l.34,16.3Zm-443.53,0h49.48l1.89-16.3h-49.02l-2.34,16.3Z"/><polygon class="x" points="59.44 252.61 0 185.67 75.65 0 600.98 0 607.06 16.06 617.33 16.06 644.05 87.96 616.12 235.11 596.27 235.11 592.82 252.61 59.44 252.61"/></g><g id="e"><polygon class="aa" points="221.05 13 259.57 73.36 249.06 105.04 209.59 45.34 221.05 13"/><polygon class="aa" points="209.59 45.34 249.06 105.04 173.35 105.04 130.5 45.34 209.59 45.34"/><polygon class="aa" points="130.5 45.34 173.35 105.04 137.45 204.75 91.25 147.34 130.5 45.34"/><polygon class="aa" points="197.83 78.51 238.3 137.5 204.43 239.61 160.77 183.08 197.83 78.51"/><polygon class="aa" points="308.46 45.34 343.71 105.04 324.76 105.04 288.66 45.34 308.46 45.34"/><polygon class="aa" points="288.66 45.34 324.76 105.04 314.92 137.5 277.91 78.51 288.66 45.34"/><polygon class="aa" points="377.25 13 409.18 73.36 391.55 137.5 358.01 78.51 377.25 13"/><polygon class="aa" points="358.01 78.51 391.55 137.5 372.37 137.5 337.96 78.51 358.01 78.51"/><polygon class="aa" points="337.96 78.51 372.37 137.5 367.73 153.94 332.89 95.32 337.96 78.51"/><polygon class="aa" points="287.22 112.43 324.27 170.67 304.86 170.67 266.92 112.43 287.22 112.43"/><polygon class="aa" points="266.92 112.43 304.86 170.67 283.94 239.61 244.02 183.08 266.92 112.43"/><polygon class="aa" points="353.07 95.32 387.03 153.94 363.47 239.61 327.29 183.08 353.07 95.32"/><polygon class="aa" points="455.35 13 483.98 73.36 442.99 239.61 410.54 183.08 455.35 13"/><polygon class="aa" points="592 13 614.87 73.36 611.77 89.1 588.62 29.07 592 13"/><polygon class="aa" points="545.7 45.34 570.82 105.04 551.87 105.04 525.91 45.34 545.7 45.34"/><polygon class="aa" points="525.91 45.34 551.87 105.04 530.12 204.75 502.13 147.34 525.91 45.34"/><polygon class="am" points="580.7 165.13 605.36 222.11 585.58 222.11 559.99 165.13 580.7 165.13"/><polygon class="aa" points="608.29 29.07 630.6 89.1 605.36 222.11 580.7 165.13 608.29 29.07"/><polygon class="aa" points="559.99 165.13 585.58 222.11 582.13 239.61 556.22 183.08 559.99 165.13"/><polygon class="aa" points="816.5 13 829.89 73.36 826.24 105.04 812.52 45.34 816.5 13"/><polygon class="aa" points="812.52 45.34 826.24 105.04 750.53 105.04 733.43 45.34 812.52 45.34"/><polygon class="aa" points="733.43 45.34 750.53 105.04 736.2 204.75 717.77 147.34 733.43 45.34"/><polygon class="aa" points="799.95 147.34 814.74 204.75 810.72 239.61 795.55 183.08 799.95 147.34"/><polygon class="aa" points="911.39 45.34 920.89 105.04 901.94 105.04 891.6 45.34 911.39 45.34"/><polygon class="aa" points="891.6 45.34 901.94 105.04 899.12 137.5 888.51 78.51 891.6 45.34"/><polygon class="aa" points="905.67 112.43 915.65 170.67 896.24 170.67 885.36 112.43 905.67 112.43"/><polygon class="aa" points="885.36 112.43 896.24 170.67 890.24 239.61 878.8 183.08 885.36 112.43"/><polygon class="aa" points="972.7 13 979.5 73.36 969.77 239.61 962.07 183.08 972.7 13"/><polygon class="aa" points="1050.8 13 1054.3 73.36 1050.34 204.75 1046.47 147.34 1050.8 13"/><polygon class="aa" points="1108.07 147.34 1109.21 204.75 1108.9 239.61 1107.73 183.08 1108.07 147.34"/><polygon class="aa" points="2137.1 45.34 2094.25 105.04 2075.3 105.04 2117.31 45.34 2137.1 45.34"/><polygon class="aa" points="2149.86 78.51 2105.94 137.5 2094.25 105.04 2137.1 45.34 2149.86 78.51"/><polygon class="aa" points="2209.91 78.51 2163.39 137.5 2144.21 137.5 2189.86 78.51 2209.91 78.51"/><polygon class="aa" points="2162.92 112.43 2117.88 170.67 2098.46 170.67 2142.61 112.43 2162.92 112.43"/><polygon class="aa" points="2106.84 183.08 2063.19 239.61 2008.04 73.36 2046.56 13 2106.84 183.08"/><polygon class="aa" points="2190.1 183.08 2142.71 239.61 2117.88 170.67 2162.92 112.43 2190.1 183.08"/><polygon class="aa" points="1978.94 45.34 1942.84 105.04 1923.89 105.04 1959.14 45.34 1978.94 45.34"/><polygon class="aa" points="2012 147.34 1973.09 204.75 1942.84 105.04 1978.94 45.34 2012 147.34"/><polygon class="aa" points="1940.33 183.08 1904.14 239.61 1858.43 73.36 1890.36 13 1940.33 183.08"/><polygon class="aa" points="1741.7 45.34 1715.73 105.04 1708.82 73.36 1734.16 13 1741.7 45.34"/><polygon class="aa" points="1781.19 45.34 1753.54 105.04 1715.73 105.04 1741.7 45.34 1781.19 45.34"/><polygon class="aa" points="1880.07 45.34 1848.19 105.04 1810.38 105.04 1840.57 45.34 1880.07 45.34"/><polygon class="aa" points="1815.39 183.08 1784.81 239.61 1753.54 105.04 1781.19 45.34 1815.39 183.08"/><polygon class="aa" points="1662.62 45.34 1640.03 105.04 1621.08 105.04 1642.82 45.34 1662.62 45.34"/><polygon class="aa" points="1669.35 78.51 1646.19 137.5 1640.03 105.04 1662.62 45.34 1669.35 78.51"/><polygon class="aa" points="1676.23 112.43 1652.49 170.67 1633.07 170.67 1655.92 112.43 1676.23 112.43"/><polygon class="aa" points="1607.29 183.08 1586.04 239.61 1559.21 73.36 1577.96 13 1607.29 183.08"/><polygon class="aa" points="1690.55 183.08 1665.57 239.61 1652.49 170.67 1676.23 112.43 1690.55 183.08"/><polygon class="aa" points="1461.61 183.08 1446.9 239.61 1428.33 73.36 1441.3 13 1461.61 183.08"/><polygon class="aa" points="1375.17 147.34 1364.48 204.75 1353.53 73.36 1363.21 13 1375.17 147.34"/><polygon class="aa" points="1295.09 183.08 1287.86 239.61 1278.72 73.36 1285.1 13 1295.09 183.08"/><polygon class="aa" points="1267.21 45.34 1261.51 105.04 1185.81 105.04 1188.13 45.34 1267.21 45.34"/><path class="u" d="m160.77,183.08l43.66,56.53H65.28s-50.19-56.53-50.19-56.53h145.68Zm20.84,0l42.72,56.53h59.61s-39.92-56.53-39.92-56.53h-62.41Zm83.25,0l38.99,56.53h59.62s-36.19-56.53-36.19-56.53h-62.42Zm83.26,0l35.25,56.53h59.61s-32.45-56.53-32.45-56.53h-62.41Zm83.25,0l31.52,56.53h119.23s-25.92-56.53-25.92-56.53h-124.84Zm218.49,0l21.71,56.53h139.14s-15.18-56.53-15.18-56.53h-145.68Zm166.52,0l14.24,56.53h59.61s-11.44-56.53-11.44-56.53h-62.41Zm83.25,0l10.51,56.53h59.62s-7.71-56.53-7.71-56.53h-62.42Zm83.25,0l6.77,56.53h119.23s-1.17-56.53-1.17-56.53h-124.84Zm1123.95,0l-43.66,56.53h59.61s46.46-56.53,46.46-56.53h-62.41Zm83.25,0l-47.39,56.53h59.62s50.19-56.53,50.19-56.53h-62.42Zm-249.77,0l-36.19,56.53h139.14s42.72-56.53,42.72-56.53h-145.68Zm-124.94,0l-30.58,56.53h59.71s33.39-56.53,33.39-56.53h-62.52Zm-208.1,0l-21.24,56.53h59.62s24.05-56.53,24.05-56.53h-62.42Zm83.26,0l-24.98,56.53h59.61s27.78-56.53,27.78-56.53h-62.41Zm-228.94,0l-14.71,56.53h119.23s20.31-56.53,20.31-56.53h-124.84Zm-166.52,0l-7.24,56.53h139.14s13.77-56.53,13.77-56.53h-145.68Zm-166.52,0l.23,56.53h139.14s6.3-56.53,6.3-56.53h-145.68Z"/><path class="ai" d="m221.05,13l-11.46,32.34h-79.09s-39.25,102-39.25,102h20.57s25.96-68.84,25.96-68.84h60.04s-37.06,104.57-37.06,104.57H15.09S84.39,13,84.39,13h136.65Zm156.2,0h-136.65s-58.99,170.08-58.99,170.08h62.41s22.9-70.65,22.9-70.65h20.31s-22.36,70.65-22.36,70.65h62.42s25.78-87.76,25.78-87.76h-20.18s5.07-16.82,5.07-16.82h20.05s19.24-65.51,19.24-65.51Zm-79.29,65.51h-20.05s10.75-33.17,10.75-33.17h19.8s-10.5,33.17-10.5,33.17M396.8,13l-48.67,170.08h62.41S455.35,13,455.35,13h-58.55Zm195.2,0h-117.1s-43.52,170.08-43.52,170.08h124.84s3.78-17.95,3.78-17.95h20.71s27.59-136.07,27.59-136.07h-19.67s3.38-16.07,3.38-16.07Zm-69.3,134.34h-20.57s23.78-102,23.78-102h19.8s-23,102-23,102M679.85,13l-29.98,170.08h145.68s4.4-35.74,4.4-35.74h-82.18s15.66-102,15.66-102h79.09s3.98-32.34,3.98-32.34h-136.65Zm136.54,170.08h62.41s6.56-70.65,6.56-70.65h20.31s-6.03,70.65-6.03,70.65h62.42s10.64-170.08,10.64-170.08h-136.65s-19.66,170.08-19.66,170.08Zm92.17-104.57h-20.05s3.08-33.17,3.08-33.17h19.8s-2.83,33.17-2.83,33.17m83.68-65.51l-9.35,170.08h124.84s.34-35.74.34-35.74h-61.6s4.33-134.34,4.33-134.34h-58.56Zm1190.97,0h-136.65s60.28,170.08,60.28,170.08h62.41s-26.64-70.65-26.64-70.65h20.31s27.18,70.65,27.18,70.65h62.42s-35.76-87.76-35.76-87.76h-20.18s-6.72-16.82-6.72-16.82h20.05s-26.69-65.51-26.69-65.51Zm-33.35,65.51h-20.05s-12.51-33.17-12.51-33.17h19.8s12.76,33.17,12.76,33.17m-209.54,104.57h145.68s-58.99-170.08-58.99-170.08h-136.65s49.96,170.08,49.96,170.08Zm71.67-35.74h-20.57s-32.28-102-32.28-102h19.8s33.06,102,33.06,102M1734.16,13l7.54,32.34h39.49s34.2,137.74,34.2,137.74h62.52s-37.33-137.74-37.33-137.74h39.49s-9.25-32.34-9.25-32.34h-136.65Zm-126.87,170.08h62.42s-13.79-70.65-13.79-70.65h20.31s14.33,70.65,14.33,70.65h62.41s-38.36-170.08-38.36-170.08h-136.65s29.33,170.08,29.33,170.08Zm62.06-104.57h-20.05s-6.47-33.17-6.47-33.17h19.8s6.73,33.17,6.73,33.17m-228.04-65.51l20.31,170.08h124.84s-5.89-35.74-5.89-35.74h-61.6s-19.09-134.34-19.09-134.34h-58.56Zm-78.1,0l11.97,134.34h-20.57s-10.95-134.34-10.95-134.34h-58.56s9.99,170.08,9.99,170.08h145.68s-19.02-170.08-19.02-170.08h-58.55Zm-234.31,0l-.32,170.08h145.68s-1.83-35.74-1.83-35.74h-82.17s-2.12-102-2.12-102h79.08s-1.65-32.34-1.65-32.34h-136.65Z"/></g></g><g id="f"><polygon class="v" points="1320.56 368.62 1315.42 401.4 952.19 401.4 947.05 368.62 1320.56 368.62"/><polygon class="ac" points="1310.2 224.34 1320.56 368.65 947.05 368.65 957.41 224.34 1310.2 224.34"/><polygon class="w" points="1311.97 360.64 1320.57 368.64 947.05 368.64 955.64 360.64 1311.97 360.64"/><polygon class="ae" points="964.86 232.34 957.42 224.34 1310.2 224.34 1302.75 232.34 964.86 232.34"/><path class="aj" d="m955.64,360.64l-8.6,8,10.37-144.31,7.45,8-9.22,128.31Zm356.33,0l8.6,8-10.37-144.31-7.45,8,9.22,128.31Z"/><polygon class="ag" points="952.38 294.39 960.4 294.37 960.63 291.27 952.6 291.3 952.38 294.39"/><polygon class="y" points="988.51 224.35 985 224.36 984.42 232.34 987.91 232.34 988.51 224.35"/><path class="ah" d="m960.63,291.27l19.35-.02.22-3.1-19.35.02-.22,3.1Zm348.54,30.31h-31.9c-2.51,0-4.35,1.96-4.22,4.54l.02.21h36.44l-.33-4.75Z"/><polygon class="ag" points="1309.84 330.85 1317.89 330.85 1317.57 326.33 1309.5 326.33 1309.84 330.85"/><polygon class="ab" points="1279.47 360.64 1274.52 360.64 1274.8 368.65 1279.83 368.65 1279.47 360.64"/><polygon class="al" points="1235.32 232.34 1239.2 232.34 1238.78 224.34 1234.92 224.34 1235.32 232.34"/><path class="ak" d="m1238.25,254.54h.16c.86.08,1.65-.57,1.77-1.46l.06-.49-1.03-20.26h-3.88s1.04,20.26,1.04,20.26c.02,1.05.86,1.86,1.88,1.94Zm-258.28,36.67l-19.34.07-.22,3.1,22.62-.08,4.88-61.96h-3.49l-4.46,58.87Zm298.3,39.65h31.58l-.34-4.53h-36.54l1.56,34.32h4.95l-1.21-29.79Z"/><path class="z" d="m1275.21,368.78l-1.32,17.78c-.07.68,0,2.09.84,2.42.39.22,1.21.2,1.5.18,0,0,1.43.04,1.4-2.21l2.2-18.31-4.62.14Z"/><g class="ao"><polygon class="ad" points="1217.45 254.27 1217.94 268.84 1236 268.84 1236.83 289.06 1218.62 289.06 1219.13 304.15 1163.9 304.15 1164.01 313.8 1237.84 313.8 1238.69 334.76 1138.88 334.76 1138.8 298.71 1157.22 298.71 1157.08 283.69 1211.87 283.69 1211.57 274.25 1138.74 274.25 1138.7 254.27 1217.45 254.27"/><polygon class="ad" points="1127.66 254.27 1127.55 304.15 1109.23 304.15 1109.09 319.42 1090.52 319.42 1090.26 334.76 1064.88 334.76 1065.28 319.42 1046.86 319.42 1047.37 304.15 1028.92 304.15 1030.96 254.27 1055.54 254.27 1054.16 298.71 1072.59 298.71 1072.23 313.8 1083.96 313.8 1084.25 298.71 1102.68 298.71 1103.21 254.27 1127.66 254.27"/></g><path class="af" d="m1118.02,368.65h-84.78l-80.8-75.04,4.98-69.26h5.23l155.38,144.31Zm-167.4-49.75l-3.57,49.75h57.14l-53.57-49.75Zm127.34-94.56h-34.82l155.38,144.31h34.82l-155.38-144.31Zm141.04,0l97.71,90.75-6.52-90.75h-91.19Z"/></g></g></g></svg>