<?xml version="1.0" encoding="UTF-8"?><svg id="a" xmlns="http://www.w3.org/2000/svg" width="162" height="32" viewBox="0 0 162 32"><defs><style>.e{font-family:ArialMT, Arial;font-size:12px;}.e,.f{fill:#fff;}.g{stroke:#000;stroke-miterlimit:10;stroke-width:2px;}.f,.h,.i{stroke-width:0px;}.h{fill:#3b414e;}.i{fill:#2c303a;}</style></defs><rect class="h" width="162" height="32" rx="4" ry="4"/><path class="i" d="m32,0h1v32h-1V0Z"/><g id="b"><polygon class="g" points="27.4645 10.7351 22.7275 25.3259 18.2044 25.3259 15.9602 22.4108 14.633 22.4108 13.5718 21.0339 12.1775 25.3259 7.6619 25.3259 4.5355 21.2652 9.2723 6.6741 13.7905 6.6741 16.9171 10.7351 16.415 12.2783 16.4646 12.3429 17.3593 9.5967 18.8654 9.5967 19.8148 6.6741 24.3379 6.6741 27.4645 10.7351"/></g><g id="c"><polygon class="i" points="9.0511 21.2652 12.1775 25.3259 7.6619 25.3259 4.5355 21.2652 9.0511 21.2652"/><polygon class="f" points="24.3379 6.6741 19.6011 21.2652 15.078 21.2652 16.9716 15.4296 15.4631 15.4296 14.5163 18.3524 11.5066 18.3524 12.4534 15.4296 10.9475 15.4296 9.0511 21.2652 4.5355 21.2652 9.2723 6.6741 13.7905 6.6741 12.8411 9.5943 14.3498 9.5943 13.4004 12.5169 16.4099 12.5169 17.3569 9.5943 18.8654 9.5943 19.8148 6.6741 24.3379 6.6741"/><polygon class="i" points="19.6011 21.2652 22.7275 25.3259 18.2044 25.3259 15.078 21.2652 19.6011 21.2652"/></g><g id="d"><text class="e" transform="translate(40.4005 20.4943)"><tspan x="0" y="0">Open hosted version</tspan></text></g></svg>